<svg viewBox="0 0 24 24" fill="currentColor" aria-hidden="true"><g transform="scale(0.01714286)"><path d="M 689 201.579 C 627.679 208.236, 565.335 232.969, 507.317 273.657 C 493.416 283.406, 475.085 297.580, 464.311 306.909 C 459.807 310.809, 455.897 314, 455.623 314 C 455.348 314, 446.320 304.326, 435.560 292.502 C 424.799 280.678, 415.690 270.891, 415.317 270.752 C 414.944 270.613, 412.421 279.950, 409.710 291.500 C 407 303.050, 396.980 345.336, 387.444 385.470 C 377.908 425.603, 370.216 458.549, 370.350 458.683 C 370.674 459.007, 570.400 440.842, 570.845 440.449 C 571.034 440.281, 561.642 429.470, 549.974 416.423 L 528.758 392.703 532.629 389.369 C 576.080 351.951, 623.662 328.483, 673.177 320.048 C 748.408 307.233, 830.889 328.262, 909.989 380.425 C 918.520 386.051, 929.966 393.900, 935.424 397.868 C 943.467 403.715, 945.583 404.837, 946.593 403.791 C 947.278 403.081, 962.003 385.453, 979.315 364.618 L 1010.791 326.736 1004.645 320.988 C 938.750 259.353, 859.290 217.740, 782.261 204.527 C 755.712 199.973, 715.505 198.702, 689 201.579 M 1018 414.229 C 1018 414.430, 1017.060 418.848, 1015.912 424.047 C 1014.763 429.246, 1011.462 447.675, 1008.576 465 L 1003.330 496.500 986.915 497.112 C 977.887 497.448, 958.432 497.786, 943.683 497.862 C 918.658 497.991, 916.898 498.117, 917.359 499.750 C 917.631 500.712, 919.105 515.125, 920.635 531.778 C 922.164 548.430, 923.730 562.563, 924.114 563.184 C 924.632 564.022, 933.770 563.993, 959.549 563.070 C 978.655 562.387, 994.970 561.565, 995.804 561.245 C 997.115 560.742, 997.232 561.731, 996.661 568.482 C 996.297 572.783, 996 586.745, 996 599.509 L 996 622.717 990.250 626.514 C 971.214 639.086, 942.779 664.953, 929.801 681.503 C 914.187 701.413, 900.135 726.925, 893.448 747.500 C 887.664 765.296, 885.675 779.504, 886.307 798.500 C 886.868 815.348, 888.146 822.472, 892.655 833.871 C 898.883 849.615, 911.628 865.610, 925.061 874.541 C 938.286 883.333, 956.046 887.802, 972.344 886.439 C 983.818 885.480, 1000.864 881, 1013.771 875.552 C 1023.289 871.535, 1044.494 859.985, 1051.910 854.779 L 1054.321 853.087 1060.181 863.231 C 1063.405 868.811, 1066.235 873.568, 1066.471 873.804 C 1066.808 874.141, 1112.259 848.297, 1121.653 842.426 C 1123.788 841.092, 1123.736 840.940, 1115.765 825.081 L 1107.723 809.082 1115.196 799.291 C 1140.160 766.586, 1160.414 727.815, 1178.557 678 C 1181.559 669.758, 1184.440 663.376, 1185.233 663.212 C 1187.022 662.844, 1202.983 668.460, 1209.500 671.752 C 1227.642 680.914, 1243.547 696.902, 1251.107 713.577 C 1261.249 735.944, 1258.287 763.830, 1243.580 784.441 C 1227.139 807.480, 1191.014 824.920, 1141.735 833.609 C 1133.401 835.078, 1132.049 835.580, 1132.511 837.034 C 1132.808 837.972, 1139.115 851.960, 1146.526 868.119 L 1159.999 897.500 1164.750 897.195 C 1177.788 896.360, 1204.797 889.410, 1222.291 882.390 C 1274.608 861.395, 1311.559 819.324, 1321.720 769.182 C 1324.230 756.799, 1324.171 725.864, 1321.616 714.053 C 1316.010 688.146, 1305.094 667.588, 1286.757 648.407 C 1265.851 626.540, 1241.560 610.686, 1216.262 602.399 C 1210.555 600.530, 1205.011 599, 1203.943 599 C 1201.451 599, 1201.444 599.101, 1205.080 581.087 C 1206.774 572.694, 1207.932 565.599, 1207.655 565.321 C 1207.245 564.911, 1147.546 559.063, 1143.269 559.014 C 1142.592 559.006, 1141.809 560.013, 1141.530 561.250 C 1141.251 562.487, 1139.630 569.462, 1137.928 576.750 L 1134.834 590 1124.167 590.001 C 1111.527 590.003, 1091.079 592.237, 1074.750 595.400 L 1063 597.676 1063.074 581.588 C 1063.115 572.740, 1063.452 563.475, 1063.824 561 C 1064.440 556.901, 1064.767 556.476, 1067.500 556.235 C 1102.349 553.162, 1159.093 546.446, 1197 540.909 C 1218.621 537.750, 1253.253 532.080, 1253.709 531.624 C 1254.015 531.318, 1245.837 468.684, 1245.423 468.160 C 1245.275 467.973, 1234.432 469.643, 1221.327 471.871 C 1191.990 476.858, 1169.863 480.104, 1142.500 483.432 C 1119.934 486.177, 1072.741 491.085, 1072.405 490.721 C 1071.694 489.952, 1078.636 453.333, 1082.647 436.692 C 1084.610 428.547, 1086.055 421.762, 1085.858 421.613 C 1085.661 421.464, 1071.100 419.877, 1053.500 418.086 C 1035.900 416.295, 1020.712 414.613, 1019.750 414.347 C 1018.788 414.082, 1018 414.029, 1018 414.229 M 240.069 524.250 C 234.844 537.593, 191.995 647.558, 159.702 730.500 C 126.916 814.706, 79.664 935.827, 77.284 941.760 C 76.881 942.765, 85.940 942.968, 121.984 942.760 L 167.191 942.500 184.458 895 L 201.726 847.500 285.767 847.244 L 369.809 846.989 375.369 861.244 C 378.427 869.085, 386.730 890.575, 393.821 909 L 406.713 942.500 452.856 942.760 C 478.235 942.903, 499 942.880, 499 942.709 C 499 942.441, 461.845 849.588, 354.761 582.250 L 330.628 522 285.789 522 L 240.950 522 240.069 524.250 M 256.363 698.264 L 228.297 775.500 284.807 775.758 C 315.887 775.900, 341.526 775.808, 341.781 775.552 C 342.036 775.297, 337.872 763.256, 332.527 748.794 C 300.034 660.874, 285.670 622.412, 285.089 621.764 C 284.725 621.359, 271.799 655.784, 256.363 698.264 M 1097 659.538 C 1092.325 660.277, 1084.450 662.085, 1079.500 663.555 C 1074.550 665.025, 1069.748 666.445, 1068.828 666.710 C 1066.962 667.248, 1066.926 666.712, 1070.138 686.500 C 1072.465 700.833, 1078.857 730.190, 1079.883 731.255 C 1080.693 732.097, 1089.418 717.324, 1096.274 703.500 C 1102.607 690.732, 1106.720 681.112, 1111.131 668.750 L 1114.968 658 1110.234 658.097 C 1107.630 658.150, 1101.675 658.799, 1097 659.538 M 995.379 709.750 C 967.324 740.800, 954 767.488, 954 792.634 C 954 810.812, 960.241 821.083, 970.419 819.652 C 974.989 819.009, 988.941 813.566, 998.994 808.503 C 1006.300 804.824, 1022.969 793.947, 1024.938 791.575 C 1025.962 790.341, 1025.358 787.574, 1021.596 776.284 C 1016.126 759.866, 1009.133 732.422, 1005.917 714.750 C 1004.641 707.737, 1003.324 702, 1002.989 702 C 1002.655 702, 999.231 705.487, 995.379 709.750 M 910.500 952.062 C 857.700 956.921, 813.242 960.919, 811.704 960.948 C 809.144 960.996, 810.728 963.037, 830.526 985.190 L 852.143 1009.380 848.322 1012.672 C 751.835 1095.789, 637.701 1108.098, 517.500 1048.350 C 495.319 1037.324, 474.628 1024.829, 453.050 1009.426 C 439.117 999.481, 435.356 997.226, 434.385 998.235 C 433.716 998.931, 418.994 1016.532, 401.670 1037.349 L 370.172 1075.198 376.836 1081.461 C 449.434 1149.694, 537.957 1192.438, 624.500 1201.047 C 640.192 1202.608, 675.039 1202.359, 691 1200.571 C 768.073 1191.939, 841.183 1158.267, 912.401 1098.603 C 919.362 1092.771, 925.223 1088, 925.427 1088 C 925.631 1088, 934.612 1097.681, 945.385 1109.513 C 956.158 1121.344, 965.277 1131.132, 965.649 1131.263 C 966.021 1131.393, 969.399 1118.450, 973.155 1102.500 C 991.946 1022.706, 1010.315 945.364, 1010.739 944.250 C 1011.350 942.644, 1021.183 941.877, 910.500 952.062" stroke="none" fill="currentColor" fill-rule="evenodd"/></g></svg>
